<?xml version="1.0" encoding="utf-8"?>
<!-- Generator: Adobe Illustrator 16.0.0, SVG Export Plug-In . SVG Version: 6.00 Build 0)  -->
<!DOCTYPE svg PUBLIC "-//W3C//DTD SVG 1.1//EN" "http://www.w3.org/Graphics/SVG/1.1/DTD/svg11.dtd">
<svg version="1.1" id="Layer_1" xmlns="http://www.w3.org/2000/svg" xmlns:xlink="http://www.w3.org/1999/xlink" x="0px" y="0px"
	 width="50px" height="50px" viewBox="0 0 50 50" enable-background="new 0 0 50 50" xml:space="preserve">
<g>
	<path fill-rule="evenodd" clip-rule="evenodd" fill="#181616" d="M24.921,0.431c-13.716,0-24.839,11.121-24.839,24.839
		c0,10.975,7.117,20.285,16.987,23.57c1.241,0.229,1.697-0.539,1.697-1.195c0-0.592-0.023-2.549-0.034-4.624
		c-6.911,1.502-8.369-2.931-8.369-2.931c-1.13-2.872-2.758-3.635-2.758-3.635c-2.254-1.541,0.169-1.51,0.169-1.51
		c2.495,0.175,3.808,2.56,3.808,2.56c2.215,3.797,5.811,2.7,7.229,2.065c0.223-1.605,0.867-2.703,1.577-3.322
		C14.872,35.622,9.071,33.49,9.071,23.974c0-2.712,0.97-4.928,2.56-6.668c-0.258-0.625-1.108-3.152,0.241-6.574
		c0,0,2.086-0.667,6.832,2.547c1.982-0.551,4.107-0.826,6.218-0.836c2.111,0.01,4.238,0.286,6.223,0.836
		c4.74-3.214,6.823-2.547,6.823-2.547c1.353,3.422,0.502,5.948,0.244,6.574c1.592,1.74,2.557,3.956,2.557,6.668
		c0,9.54-5.811,11.641-11.343,12.256c0.892,0.771,1.686,2.282,1.686,4.6c0,3.323-0.029,5.999-0.029,6.816
		c0,0.661,0.447,1.436,1.706,1.192c9.864-3.289,16.973-12.597,16.973-23.567C49.761,11.552,38.64,0.431,24.921,0.431z"/>
	<path fill="#181616" d="M9.49,36.095c-0.055,0.125-0.249,0.161-0.426,0.076c-0.181-0.082-0.281-0.249-0.223-0.372
		c0.053-0.128,0.248-0.163,0.428-0.078C9.449,35.802,9.552,35.972,9.49,36.095L9.49,36.095z M9.184,35.869"/>
	<path fill="#181616" d="M10.497,37.217c-0.119,0.109-0.351,0.06-0.508-0.113c-0.163-0.174-0.193-0.406-0.072-0.518
		c0.122-0.109,0.346-0.058,0.509,0.115C10.588,36.876,10.62,37.106,10.497,37.217L10.497,37.217z M10.259,36.963"/>
	<path fill="#181616" d="M11.476,38.647c-0.152,0.106-0.401,0.008-0.555-0.214c-0.152-0.221-0.152-0.485,0.003-0.592
		c0.154-0.105,0.399-0.011,0.555,0.208C11.631,38.274,11.631,38.54,11.476,38.647L11.476,38.647z M11.476,38.647"/>
	<path fill="#181616" d="M12.817,40.03c-0.136,0.149-0.426,0.109-0.638-0.096c-0.217-0.2-0.277-0.484-0.142-0.635
		c0.138-0.149,0.43-0.107,0.644,0.096C12.897,39.596,12.962,39.882,12.817,40.03L12.817,40.03z M12.817,40.03"/>
	<path fill="#181616" d="M14.668,40.833c-0.06,0.193-0.339,0.282-0.621,0.199c-0.281-0.084-0.464-0.312-0.408-0.509
		c0.058-0.196,0.339-0.288,0.622-0.2C14.542,40.408,14.727,40.635,14.668,40.833L14.668,40.833z M14.668,40.833"/>
	<path fill="#181616" d="M16.701,40.981c0.007,0.205-0.232,0.374-0.527,0.378c-0.297,0.007-0.538-0.158-0.541-0.36
		c0-0.207,0.233-0.375,0.53-0.38C16.459,40.613,16.701,40.777,16.701,40.981L16.701,40.981z M16.701,40.981"/>
	<path fill="#181616" d="M18.593,40.659c0.036,0.2-0.17,0.404-0.463,0.46c-0.289,0.053-0.555-0.071-0.592-0.27
		c-0.036-0.204,0.173-0.41,0.461-0.462C18.292,40.336,18.556,40.456,18.593,40.659L18.593,40.659z M18.593,40.659"/>
</g>
</svg>
